HIERARCHY
ROOT Hips
{
  OFFSET -33.9132 29.2015 117.021
  CHANNELS 6 Xposition Yposition Zposition Zrotation Xrotation Yrotation
  JOINT LeftUpLeg
  {
    OFFSET 8.64259 1.95398 -2.38835
    CHANNELS 3 Zrotation Xrotation Yrotation
    JOINT LeftLeg
    {
      OFFSET 43.7702 0 0
      CHANNELS 3 Zrotation Xrotation Yrotation
      JOINT LeftFoot
      {
        OFFSET 40.6238 0 0
        CHANNELS 3 Zrotation Xrotation Yrotation
        JOINT LeftToeBase
        {
          OFFSET 12.7242 0 0
          CHANNELS 3 Zrotation Xrotation Yrotation
          End Site
          {
            OFFSET 0 0 0
          }
        }
      }
    }
  }
  JOINT RightUpLeg
  {
    OFFSET -8.2249 1.95398 -2.59336
    CHANNELS 3 Zrotation Xrotation Yrotation
    JOINT RightLeg
    {
      OFFSET 43.5653 0 0
      CHANNELS 3 Zrotation Xrotation Yrotation
      JOINT RightFoot
      {
        OFFSET 40.6238 0 0
        CHANNELS 3 Zrotation Xrotation Yrotation
        JOINT RightToeBase
        {
          OFFSET 12.7242 0 0
          CHANNELS 3 Zrotation Xrotation Yrotation
          End Site
          {
            OFFSET 0 0 0
          }
        }
      }
    }
  }
  JOINT Spine
  {
    OFFSET 0.165834 0.87714 6.61349
    CHANNELS 3 Zrotation Xrotation Yrotation
    JOINT Spine1
    {
      OFFSET 7.38963 1.71661e-005 0
      CHANNELS 3 Zrotation Xrotation Yrotation
      JOINT Spine2
      {
        OFFSET 11.9445 1.14441e-005 0
        CHANNELS 3 Zrotation Xrotation Yrotation
        JOINT Spine3
        {
          OFFSET 14.7254 4.19617e-005 0
          CHANNELS 3 Zrotation Xrotation Yrotation
          JOINT Spine4
          {
            OFFSET 10.9679 0 0
            CHANNELS 3 Zrotation Xrotation Yrotation
            JOINT RightShoulder
            {
              OFFSET 2.46616 -1.6653 3.69651
              CHANNELS 3 Zrotation Xrotation Yrotation
              JOINT RightArm
              {
                OFFSET 13.0012 0 0
                CHANNELS 3 Zrotation Xrotation Yrotation
                JOINT RightForeArm
                {
                  OFFSET 28.7848 1.62311e-005 0
                  CHANNELS 3 Zrotation Xrotation Yrotation
                  JOINT RightHand
                  {
                    OFFSET 26.5688 1.62095e-005 0
                    CHANNELS 3 Zrotation Xrotation Yrotation
                    End Site
                    {
                      OFFSET 0 0 0
                    }
                  }
                }
              }
            }
            JOINT LeftShoulder
            {
              OFFSET 2.38034 -1.29275 -3.7523
              CHANNELS 3 Zrotation Xrotation Yrotation
              JOINT LeftArm
              {
                OFFSET 16.3182 6.07031e-005 0
                CHANNELS 3 Zrotation Xrotation Yrotation
                JOINT LeftForeArm
                {
                  OFFSET 27.0901 0 0
                  CHANNELS 3 Zrotation Xrotation Yrotation
                  JOINT LeftHand
                  {
                    OFFSET 24.5451 1.51738e-005 0
                    CHANNELS 3 Zrotation Xrotation Yrotation
                    End Site
                    {
                      OFFSET 0 0 0
                    }
                  }
                }
              }
            }
            JOINT Neck
            {
              OFFSET 5.0226 -0.0266342 0
              CHANNELS 3 Zrotation Xrotation Yrotation
              JOINT Head
              {
                OFFSET 6.69364 2.86102e-005 0
                CHANNELS 3 Zrotation Xrotation Yrotation
                End Site
                {
                  OFFSET 0 0 0
                }
              }
            }
          }
        }
      }
    }
  }
}
MOTION
Frames:	17
Frame Time:	0.0416667
-224.034 69.8392 -225.564 -17.3523 -53.1038 -18.3633 -59.6252 56.4484 5.89114 -87.0188 18.5469 -13.1161 84.1692 20.5319 11.8855 17.2546 2.53108 -14.9834 -174.648 56.4847 64.0369 -76.2302 -1.32682 -5.35696 99.5539 -22.9543 11.296 48.7586 -8.33835 -14.6443 0.266697 11.7276 -90.9288 3.41614 0.163028 -1.81678 -8.25613 0.0829334 -1.82221 -30.7821 0.701427 -1.68387 -10.7694 0.701429 -1.68387 85.7013 -20.2973 -120.786 9.37472 25.9401 -48.9354 -7.06468 -59.9819 -6.74388 -32.4465 -2.02784 1.44539 -94.3817 -25.9053 63.1061 -19.0812 -27.7331 -79.1862 -2.89349 48.2549 -0.0118828 21.0476 -0.326664 -4.82568 30.6879 -1.5255 -1.30448 10.0226 -0.4582 4.00332 
-230.535 67.6569 -229.495 -7.59019 -52.0087 -11.054 -53.658 53.0909 -3.04505 -88.2932 9.93261 -12.5398 84.4998 19.4091 10.1368 16.7188 -1.7728 -7.20247 -167.569 63.9416 60.9905 -89.1301 1.69453 -5.40788 98.625 -23.8098 8.57984 52.4428 -10.5078 -15.5754 0.448253 11.9337 -90.9443 3.00681 0.522784 -1.84149 -8.66538 0.441241 -1.86272 -31.193 1.05198 -1.59935 -11.1804 1.05198 -1.59934 84.8023 -19.5928 -123.269 2.85635 30.1889 -43.3765 -5.47018 -44.3771 -5.54445 -44.2131 -2.77666 1.92802 -97.2875 -31.0052 60.252 -16.1987 -29.6805 -76.2242 -3.12678 49.0702 -0.0120874 28.8195 -1.54887 -7.13648 28.0633 -0.13822 3.00461 16.27 -0.333821 5.25625 
-236.198 65.5788 -231.248 2.41471 -51.2788 -4.69122 -50.225 51.4715 -7.32872 -88.1935 13.9433 -12.0026 80.6224 15.4815 7.85758 16.3153 0.402951 -11.5235 -159.157 66.8919 54.8557 -98.8913 0.23616 -5.55483 97.36 -25.9616 2.99196 55.746 -12.5084 -16.1034 0.443705 12.2117 -90.8605 2.45121 0.550643 -1.6709 -9.22072 0.476573 -1.69353 -31.7501 1.0273 -1.42823 -11.7375 1.02731 -1.42826 85.213 -19.8241 -122.197 -0.620356 31.91 -39.6651 -4.81908 -34.2112 -5.19487 -39.7144 -0.317048 -4.27434 -99.1566 -32.6051 57.7754 -10.8236 -31.0133 -73.7775 -5.09413 40.677 -0.00999705 32.2134 -2.77632 -10.43 23.7 -0.352391 7.12389 22.9209 -1.54214 5.11641 
-240.99 63.7487 -231.16 7.57871 -49.2014 -1.29652 -46.0644 48.4969 -7.71194 -87.7447 20.463 -13.3107 78.3294 14.096 8.38164 12.9948 -1.03931 -10.9974 -156.077 70.288 56.1662 -104.106 9.47134 -5.18362 96.2758 -25.95 1.80013 57.7956 -13.7945 -16.867 0.836783 12.4862 -90.8141 1.90729 1.35713 -1.55628 -9.76393 1.28734 -1.6145 -32.3008 1.76209 -1.07647 -12.2881 1.76209 -1.07647 86.3273 -21.1247 -118.882 2.84283 30.2222 -43.4171 -3.94965 -16.2347 -4.92615 -66.6134 -4.77935 2.27626 -99.7843 -29.5027 54.9634 -10.0196 -32.6893 -71.7088 -4.42046 40.2443 -0.135836 37.2501 -5.3413 -15.5572 21.1865 -1.90534 7.61742 28.4832 -1.8351 8.27395 
-244.058 62.6823 -230.231 12.1978 -48.1209 3.96187 -43.2717 48.0296 -8.96746 -87.4576 25.3659 -14.08 75.7357 12.2767 8.79687 16.2037 -3.02906 -5.30279 -164.251 72.0808 65.8312 -107.1 10.3557 -4.64903 93.0402 -26.7032 -2.4222 59.5469 -14.9543 -17.9422 1.02111 12.9526 -91.038 0.977787 1.64636 -1.9639 -10.6937 1.55835 -2.03442 -33.2307 2.16042 -1.37836 -13.218 2.16041 -1.37835 87.0558 -24.3544 -115.401 0.127474 32.4225 -43.8081 -4.01416 -17.6795 -4.93152 -61.3865 0.577986 -6.04981 -97.8919 -22.9307 54.5235 -9.96685 -35.4955 -68.3489 -2.53133 33.3406 -2.20144 40.7442 -7.41424 -19.6821 16.2263 -2.68321 1.23012 32.9843 2.02941 14.7934 
-245.211 62.913 -228.798 14.7223 -49.2765 8.6296 -43.2213 50.0442 -8.42849 -87.4915 27.3569 -13.8462 75.5258 12.2457 9.06919 15.305 -2.4193 -7.09191 -176.899 69.3861 77.9698 -106.556 9.1457 -4.29314 92.9106 -26.9135 -2.83971 61.2443 -15.8497 -16.4883 1.39585 13.4514 -91.2178 -0.0148941 2.33407 -2.25193 -11.6859 2.23271 -2.35247 -34.2302 2.90284 -1.44622 -14.2175 2.90285 -1.44621 88.1421 -24.5603 -112.988 0.850375 32.1649 -45.0565 -3.53166 -6.21197 -4.88473 -71.9686 2.23363 -8.22266 -95.3165 -17.2688 56.0503 -12.9104 -36.1079 -70.9644 -1.29961 32.0975 -3.10615 41.947 -7.37207 -19.1428 15.577 -2.23153 -4.91151 31.2595 5.2717 18.8827 
-244.628 64.5357 -227.011 16.1337 -51.0002 12.8384 -45.2247 54.4687 -8.61334 -87.9874 25.0691 -12.1754 77.2437 12.8923 7.55428 9.86084 -0.481609 -13.9653 176.779 63.2521 83.9742 -102.032 5.44134 -4.03864 92.4433 -27.4303 -4.69884 61.6907 -15.9913 -15.3308 1.80365 13.7162 -91.3881 -0.537449 3.08894 -2.52317 -12.2074 2.97495 -2.65667 -34.7638 3.70426 -1.47761 -14.7512 3.70426 -1.4776 88.0477 -24.0702 -113.445 0.490322 31.75 -42.2853 -3.39593 -2.93625 -4.89789 -71.0014 -1.64944 -2.78988 -93.2045 -13.7904 58.3599 -14.8051 -33.637 -76.7452 -2.15119 34.92 -1.9245 39.7732 -5.29343 -14.7454 19.3233 -1.52179 -3.60835 26.7811 4.9466 19.1226 
-242.739 67.2346 -224.621 16.9314 -52.6657 16.5646 -50.3028 60.5011 -7.54308 -87.6352 21.3863 -10.4862 79.9066 14.4441 6.785 16.5839 0.50675 -11.5933 175.692 55.0551 85.6732 -93.8453 5.64683 -3.86085 93.9874 -26.9391 -1.87897 62.0456 -16.0533 -14.0353 2.07098 13.7272 -91.4484 -0.554914 3.5998 -2.61081 -12.2238 3.48145 -2.76676 -34.7913 4.21776 -1.40712 -14.7787 4.21777 -1.40711 86.4826 -23.3134 -117.207 -1.76537 31.4555 -34.6671 -3.64019 -8.84752 -4.88545 -55.7704 -5.81286 6.2507 -91.3553 -12.058 61.5859 -12.0804 -31.5311 -84.1538 -4.36006 47.0388 0.152978 29.0392 -2.11433 -8.83453 22.8668 -0.0532702 -0.953945 22.1342 4.31411 17.4706 
-239.447 70.4798 -221.198 20.3585 -53.3631 20.8977 -65.5951 65.7281 1.58282 -85.9723 17.4927 -9.59004 84.0013 16.3076 4.19857 24.7587 2.23063 -8.92615 175.022 45.4933 83.8976 -82.7054 8.43272 -3.70568 97.5281 -25.408 4.96593 59.9767 -14.8431 -13.8534 2.03187 13.5833 -91.4035 -0.267957 3.53579 -2.54144 -11.9369 3.42056 -2.69462 -34.5033 4.13588 -1.36024 -14.4907 4.13588 -1.36023 86.5863 -19.8642 -119.123 -3.69117 30.0603 -24.3673 -4.40226 -26.2086 -5.03442 -24.451 -2.13314 5.15712 -89.0877 -11.3218 66.7917 -11.9753 -30.6661 -93.4654 -4.47274 54.7676 -0.0140849 5.82506 -0.11785 -17.5534 26.3553 1.30299 1.58513 17.7661 3.43245 14.5826 
-235.501 73.2308 -216.225 19.319 -52.5384 22.3148 -81.4874 69.6432 13.8839 -84.3347 21.4767 -9.39077 90.4439 20.2748 1.16674 19.8573 -1.11284 -5.98948 174.242 36.087 83.9343 -68.6026 1.61896 -3.06738 95.8042 -25.0204 4.0339 58.8725 -14.1192 -12.5851 2.02893 13.1548 -91.1956 0.587103 3.60036 -2.17908 -11.081 3.50099 -2.3355 -33.6522 4.08859 -0.994939 -13.6395 4.0886 -0.994944 86.7948 -18.1091 -119.822 -7.63375 30.8785 -19.5101 -6.06717 -51.5432 -5.93956 3.92534 -1.02356 -16.5266 -89.0571 -13.043 67.8952 -12.3026 -32.8959 -93.5393 -2.95551 61.2529 -0.0189877 -3.13076 1.35164 -23.7548 30.3374 2.91936 5.23933 14.7171 2.47315 11.2129 
-229.677 76.4859 -209.55 22.0646 -50.702 24.7629 -111.399 68.6865 36.691 -79.8975 16.6997 -9.84952 94.8482 22.3761 -0.99027 22.4256 0.467897 -7.09928 171.754 26.2752 80.8002 -52.6141 -6.58763 -2.24329 83.7811 -19.5863 -2.1951 62.3406 -15.426 -6.96031 1.47569 12.6757 -90.7689 1.53384 2.65197 -1.4227 -10.1353 2.58678 -1.53809 -32.6908 2.95686 -0.559345 -12.6781 2.95685 -0.559355 88.6843 -14.6009 -117.77 1.45459 26.7209 -21.9776 -6.67541 -57.1086 -6.42388 17.4899 -2.81874 -22.4738 -88.4849 -17.1434 71.3701 -5.15793 -33.1063 -88.7147 -5.00818 66.5253 -0.0254901 -1.57325 1.15241 -25.5149 36.3157 5.49428 7.9365 9.47852 2.4242 7.3181 
-224.683 78.9357 -201.624 17.8521 -49.8862 25.1246 -131.7 65.5695 56.7176 -75.2745 13.1014 -9.23817 102.898 27.4726 -3.02841 25.8686 0.42404 -3.94774 176.964 26.6773 82.6946 -54.0699 -15.1198 -4.36301 66.1443 -5.21487 -1.15485 52.3348 -10.5219 -1.14504 1.45242 11.7937 -90.3295 3.29091 2.77045 -0.625576 -8.3773 2.74022 -0.746993 -30.936 2.83027 0.236643 -10.9234 2.83026 0.236648 88.7559 -17.2296 -115.815 14.5044 19.9644 -25.4597 -8.20255 -66.2536 -7.7309 15.283 -3.00492 -26.3517 -88.3259 -19.426 72.7436 5.05962 -29.7711 -74.1738 -8.2465 65.18 0.0322639 1.73617 -0.0190066 -30.9144 40.2761 7.26029 6.02399 5.75103 4.20868 4.32186 
-219.102 80.6971 -192.756 23.4976 -48.7853 30.7541 -149.837 55.7704 69.8101 -69.0233 6.55246 -7.99457 108.452 27.4047 -9.41243 30.48 2.01742 -3.22203 -177.029 34.0526 82.554 -74.0179 -20.9638 -6.8939 62.8895 -2.11585 -1.75394 18.5047 2.00136 8.32811 0.814963 11.1315 -90.0706 4.61129 1.5996 -0.157355 -7.0587 1.59112 -0.227628 -29.6012 1.5729 0.330775 -9.58858 1.5729 0.330768 86.4515 -22.9961 -117.48 23.1308 15.0674 -17.3083 -9.62974 -71.2763 -9.02558 8.64437 -2.29121 -32.4349 -88.1923 -21.1401 73.7378 7.23054 -26.1904 -67.4445 -8.88993 66.4337 -0.144453 9.50593 -3.05856 -36.6567 41.1716 7.80072 3.16358 4.84736 5.9179 2.38803 
-213.97 81.5482 -183.783 33.8052 -49.1264 39.7409 -159.894 42.278 77.0821 -62.6684 8.19224 -6.88306 107.173 27.5474 -9.09444 35.7903 3.59598 -1.4372 -176.171 44.5908 85.2109 -92.8647 -6.34852 -5.2199 72.884 -9.62244 -4.94628 14.5624 3.04605 9.53046 0.0476251 10.9339 -89.8781 5.00443 0.14553 0.235252 -6.66655 0.155743 0.2286 -29.2013 0.0680927 0.268106 -9.18867 0.0681009 0.268111 85.1393 -28.9634 -116.793 31.0029 12.3678 -6.04955 -10.1417 -72.6581 -9.50712 1.41702 -0.601331 -34.6147 -87.2585 -21.6809 75.9808 4.86256 -26.9178 -66.0529 11.5246 67.8103 -19.2255 17.3774 -7.25893 -43.0329 41.8077 7.54323 -1.20971 4.14871 7.73607 1.6726 
-208.449 81.892 -174.918 42.3964 -48.5502 49.914 -165.862 29.073 83.3613 -54.7343 9.89595 -5.15065 105.05 28.7759 -6.82587 42.337 5.78011 0.383082 177.401 59.9294 93.3214 -100.337 4.2477 -3.73273 82.2308 -15.4866 -4.30496 24.3193 0.8649 4.11061 -0.481461 10.6023 -90.2186 5.66718 -1.05328 -0.402681 -6.00341 -1.06997 -0.355938 -28.5406 -0.883569 -0.700628 -8.52797 -0.883566 -0.700647 87.7479 -27.628 -112.285 41.9744 11.7147 11.4343 -8.44834 -67.3102 -7.94283 -13.9866 3.792 -36.8565 -85.3665 -18.0683 79.0118 1.19322 -28.0091 -69.6241 28.4206 64.1878 -35.7191 28.8928 -14.2381 -48.3599 37.3806 8.33117 -2.60174 6.0543 9.09964 1.39913 
-200.864 82.6452 -164.417 49.9269 -47.2656 63.1441 -169.606 14.6926 92.1465 -44.2701 12.5236 -1.95134 95.1342 24.8585 -2.98092 52.8083 10.2471 -0.927453 164.156 69.7349 107.418 -89.5403 4.37916 -1.26887 88.8851 -17.2533 0.389239 27.297 -0.721204 5.41583 -0.949209 10.281 -91.2714 6.27917 -2.43399 -2.4202 -5.3915 -2.53811 -2.31076 -27.918 -1.59443 -3.03945 -7.90533 -1.59443 -3.03944 89.0394 -21.9136 -112.453 47.1664 14.7991 37.3326 -24.2214 -59.6717 -26.3671 -24.2763 7.52642 -40.2364 -83.191 -11.0879 82.0867 2.16444 -28.4958 -69.2263 25.2516 56.6122 -34.5682 31.3503 -16.2619 -49.9669 35.9025 10.6102 -0.539397 3.36168 10.2413 0.462236 
-190.162 85.0314 -152.117 48.3317 -48.7861 66.5068 -173.241 0.861672 95.1067 -26.5339 16.9022 1.70138 66.6004 7.91502 4.93028 65.6039 15.5303 -9.87368 160.602 74.2204 112.049 -68.1477 2.06258 2.19343 84.8506 -14.3038 0.473013 28.2264 -1.11095 5.48941 -0.986023 9.81086 -92.1375 7.18102 -2.88936 -4.08206 -4.49273 -3.06608 -3.95115 -26.9856 -1.53057 -4.76028 -6.97297 -1.53057 -4.76028 88.9056 -19.2843 -114.198 35.7357 14.9744 65.9631 -61.109 -41.8738 -69.6144 -23.6152 7.39142 -40.394 -81.9146 -5.59056 84.2222 4.15383 -24.6436 -62.1254 28.8427 52.0143 -40.0671 37.1365 -20.5192 -52.7165 37.6402 13.6834 2.79374 0.111063 11.6133 0.802878 
